<svg width="80" height="48" viewBox="0 0 80 48" fill="none" xmlns="http://www.w3.org/2000/svg">
<path fill-rule="evenodd" clip-rule="evenodd" d="M39.9988 2C33.6866 6.0023 29.8623 12.9567 29.8623 20.4281C29.8623 27.8995 33.6866 34.854 39.9988 38.8563C46.2979 34.8442 50.1124 27.8963 50.1124 20.4281C50.1124 12.96 46.2979 6.01206 39.9988 2Z" fill="#EADA47"/>
<path fill-rule="evenodd" clip-rule="evenodd" d="M79.9968 25.0837C73.3725 21.6211 65.4376 21.7837 58.9662 25.5226C52.4947 29.2583 48.3842 36.047 48.072 43.5119C54.6963 46.9615 62.6247 46.7859 69.0929 43.0534C75.5611 39.321 79.6749 32.5421 80.0001 25.0837" fill="#EADA47"/>
<path fill-rule="evenodd" clip-rule="evenodd" d="M0.00325206 25.0872C0.315443 32.5521 4.42596 39.3407 10.8974 43.0764C17.3689 46.8121 25.307 46.9779 31.928 43.5153C31.6028 36.0569 27.4891 29.278 21.0209 25.5456C14.5527 21.8131 6.62755 21.6408 0 25.0872" fill="#EADA47"/>
</svg>
