<svg width="240" height="68" viewBox="0 0 240 68" fill="none" xmlns="http://www.w3.org/2000/svg">
<path fill-rule="evenodd" clip-rule="evenodd" d="M45.1143 50.8751C46.7654 52.668 48.2898 54.5448 49.6898 56.5032L60.5743 50.0931V43.2568C58.572 43.6331 56.6165 44.2066 54.712 44.9795C51.3743 46.3304 48.1743 48.2979 45.1165 50.8774" fill="#72AC4A"/>
<path fill-rule="evenodd" clip-rule="evenodd" d="M42.5342 48.239C45.9609 45.306 49.5742 43.0688 53.3698 41.532C55.7053 40.5868 58.1053 39.9068 60.572 39.4942V33.0161C56.8809 33.3176 53.392 34.1676 50.1098 35.5706C45.7031 37.452 41.6475 40.3374 37.9453 44.227C39.5586 45.51 41.0875 46.8496 42.532 48.2413" fill="#72AC4A"/>
<path fill-rule="evenodd" clip-rule="evenodd" d="M32.1098 1.14233C27.7964 3.9326 25.1831 8.781 25.1831 13.9898C25.1831 19.1986 27.7964 24.047 32.1098 26.8373C36.4142 24.0402 39.0209 19.1963 39.0209 13.9898C39.0209 8.78327 36.4142 3.9394 32.1098 1.14233Z" fill="#EADA47"/>
<path fill-rule="evenodd" clip-rule="evenodd" d="M59.441 17.2357C54.9144 14.8217 49.4922 14.9351 45.0699 17.5417C40.6477 20.1461 37.8388 24.8789 37.6255 30.0832C42.1522 32.4881 47.5699 32.3657 51.9899 29.7636C56.4099 27.1615 59.221 22.4355 59.4433 17.2357" fill="#EADA47"/>
<path fill-rule="evenodd" clip-rule="evenodd" d="M4.77859 17.238C4.99192 22.4422 7.80081 27.175 12.223 29.7794C16.6453 32.3838 22.0697 32.4994 26.5941 30.0854C26.3719 24.8857 23.5608 20.1597 19.1408 17.5576C14.7208 14.9554 9.30526 14.8353 4.77637 17.238" fill="#EADA47"/>
<path fill-rule="evenodd" clip-rule="evenodd" d="M23.7852 52.462C18.0008 48.6971 11.2897 45.5124 3.64746 42.9148V50.0956L17.8786 58.4777L32.1097 66.8576L37.0519 63.9472C33.3675 59.6519 28.9452 55.8235 23.7852 52.4643" fill="#72AC4A"/>
<path fill-rule="evenodd" clip-rule="evenodd" d="M3.64773 39.0138C12.05 41.7792 19.4144 45.22 25.7366 49.3362C31.4166 53.0332 36.2566 57.2741 40.2588 62.0568L46.3411 58.4754L46.5166 58.3712C42.3544 52.6297 37.0099 47.6362 30.4877 43.3908C23.0677 38.5605 14.1211 34.689 3.64551 31.7764V39.0138H3.64773Z" fill="#72AC4A"/>
<path d="M86.9659 36.5726C87.277 36.5726 87.5748 36.6429 87.8593 36.7789C88.4548 37.069 88.7526 37.5654 88.7526 38.2704C88.7526 38.9753 88.4415 40.2446 87.8192 42.1622C86.0192 47.6408 82.8481 51.6278 78.3015 54.1257C77.2459 54.706 76.537 54.9938 76.1704 54.9938C75.7637 54.9938 75.4726 54.808 75.297 54.434C75.2148 54.2413 75.1748 54.069 75.1748 53.9172C75.1748 53.5296 75.3237 53.2281 75.6215 53.006C75.6881 52.9516 76.1081 52.6954 76.8793 52.2398C78.2859 51.4125 79.6659 50.1636 81.0193 48.493C83.3193 45.6234 84.7993 42.0829 85.4637 37.8737C85.5993 37.0056 86.0992 36.5704 86.9659 36.5704V36.5726ZM97.377 35.5164L96.9304 49.4881V49.7782C96.9437 50.7574 97.2348 51.3513 97.8037 51.5576C98.2904 51.7366 99.7659 51.8273 102.228 51.8273C104.69 51.8273 106.239 51.6414 106.915 51.2697C107.47 50.966 107.788 50.5036 107.868 49.8825C107.95 49.2342 107.99 48.0601 107.99 46.3646V45.433C107.99 44.5785 108.315 44.1501 108.964 44.1501C109.437 44.1501 109.761 44.5218 109.937 45.2676C110.126 46.0133 110.324 47.2622 110.526 49.0144C110.661 50.1046 110.728 50.9388 110.728 51.519C110.728 53.0513 109.984 54.0101 108.497 54.3954C107.306 54.7128 104.959 54.8714 101.455 54.8714C98.4237 54.8714 96.4437 54.6856 95.5081 54.3116C94.2504 53.8288 93.6215 52.6909 93.6215 50.8957C93.6215 50.8413 93.6281 50.6396 93.6415 50.295L94.1881 35.7657L77.5481 37.069L77.4059 37.0894C76.9059 37.1302 76.5192 36.9308 76.2504 36.4888C76.1015 36.2394 76.0281 35.9584 76.0281 35.641C76.0281 34.7434 76.4548 34.2606 77.3059 34.1926L107.359 31.8126H107.521C108.09 31.8126 108.501 32.0121 108.759 32.4133C108.935 32.6762 109.024 32.9596 109.024 33.261C109.024 33.7982 108.801 34.2062 108.355 34.4828C108.166 34.6074 107.941 34.6822 107.686 34.7094L97.377 35.5164ZM101.535 24.7338L82.6215 26.3477C82.4859 26.3613 82.3993 26.3681 82.357 26.3681C81.3415 26.3681 80.8348 25.8853 80.8348 24.9197C80.8348 24.038 81.3081 23.5529 82.2548 23.4713L101.248 21.8574H101.45C102.479 21.8574 102.993 22.347 102.993 23.3262C102.993 24.183 102.506 24.65 101.53 24.7338H101.535Z" fill="#72AC4A"/>
<path d="M140.639 34.1926L118.784 36.0559L118.601 36.0763C118.168 36.1034 117.824 35.938 117.566 35.5798C117.404 35.36 117.321 35.0835 117.321 34.7525C117.321 33.966 117.719 33.5376 118.519 33.4696L142.301 31.5656C142.49 31.552 142.688 31.5452 142.89 31.5452C144.677 31.5452 145.568 32.4836 145.568 34.3604C145.568 34.5803 145.548 34.9883 145.508 35.5821C145.412 36.8787 145.366 38.2386 145.366 39.6598C145.366 44.3246 145.988 47.906 147.232 50.4016C147.61 51.1745 148.112 51.8568 148.735 52.4506C149.155 52.8654 149.472 53.0717 149.688 53.0717C149.972 53.0717 150.181 52.6433 150.317 51.7888C150.546 50.286 150.668 48.9124 150.681 47.6702C150.695 46.8837 151.046 46.4893 151.737 46.4893C152.292 46.4893 152.637 46.8339 152.772 47.5252C152.826 47.8153 152.855 48.5746 152.855 49.8009C152.855 52.2149 152.712 53.899 152.428 54.851C152.035 56.1476 151.326 56.7959 150.297 56.7959C149.268 56.7959 148.146 56.1884 146.848 54.9734C145.521 53.7313 144.452 51.8477 143.641 49.3227C142.761 46.5347 142.321 42.8105 142.321 38.1457C142.321 37.3864 142.335 36.7245 142.361 36.1579C142.375 35.9085 142.381 35.7226 142.381 35.598C142.381 34.646 141.915 34.17 140.981 34.17C140.928 34.17 140.812 34.1768 140.637 34.1904L140.639 34.1926ZM130.737 46.1357C133.457 47.1285 135.681 48.144 137.412 49.1776C138.25 49.6876 138.67 50.2339 138.67 50.8119C138.67 51.2403 138.535 51.6188 138.264 51.9497C137.992 52.2807 137.655 52.4461 137.248 52.4461C136.801 52.4461 136.226 52.1764 135.524 51.6392C133.981 50.4515 132.386 49.4043 130.735 48.4931V55.0551C130.735 56.0343 130.248 56.5238 129.272 56.5238C128.297 56.5238 127.832 56.0343 127.832 55.0551V48.246C125.628 50.592 123.186 52.564 120.508 54.1665C119.939 54.4975 119.515 54.6629 119.23 54.6629C118.972 54.6629 118.737 54.5382 118.519 54.2912C118.304 54.0418 118.195 53.7744 118.195 53.4842C118.195 53.1941 118.317 52.9244 118.559 52.7181C118.626 52.6637 118.952 52.4348 119.532 52.0359C121.995 50.3948 124.437 48.1576 126.857 45.3288L119.106 45.8887C118.97 45.9023 118.89 45.909 118.861 45.909C118.05 45.909 117.644 45.5441 117.644 44.812C117.644 43.9575 118.064 43.5019 118.901 43.4452L127.83 42.7629V37.341C127.83 36.3482 128.317 35.8496 129.292 35.8496C130.268 35.8496 130.732 36.346 130.732 37.341V42.5567L138.748 41.956L138.95 41.9356C139.424 41.8948 139.781 42.0603 140.026 42.432C140.148 42.6247 140.208 42.8536 140.208 43.1143C140.208 43.9416 139.775 44.3904 138.91 44.4607L130.732 45.0613V46.138L130.737 46.1357ZM125.786 22.9523L144.881 21.089H145.044C145.841 21.089 146.241 21.5106 146.241 22.3516C146.241 23.1381 145.87 23.5665 145.126 23.6345L123.575 25.6632C121.328 28.1883 119.779 29.4508 118.928 29.4508C118.644 29.4508 118.401 29.3397 118.197 29.1199C117.995 28.8864 117.892 28.6235 117.892 28.3333C117.892 27.9752 118.237 27.4788 118.928 26.8441C120.632 25.271 122.459 22.8774 124.408 19.661C124.895 18.8609 125.435 18.4597 126.03 18.4597C126.315 18.4597 126.586 18.5572 126.841 18.7498C127.206 19.0128 127.39 19.3641 127.39 19.8061C127.39 20.4 126.855 21.4495 125.788 22.9523H125.786ZM121.808 37.1507C122.066 37.1507 122.47 37.3433 123.026 37.7309C123.919 38.3656 124.664 39.0977 125.257 39.9251C125.528 40.2968 125.664 40.698 125.664 41.1264C125.664 41.582 125.501 41.9401 125.177 42.203C124.866 42.4524 124.515 42.5748 124.121 42.5748C123.579 42.5748 123.188 42.3119 122.944 41.7883C122.43 40.698 121.875 39.7324 121.279 38.8914C121.048 38.5877 120.935 38.318 120.935 38.0845C120.935 37.808 121.064 37.5677 121.319 37.3592C121.495 37.2209 121.657 37.1529 121.806 37.1529L121.808 37.1507ZM143.339 28.7277L123.432 30.5501C122.486 30.634 122.012 30.226 122.012 29.3284C122.012 28.5962 122.404 28.1973 123.19 28.1271L143.097 26.3047H143.279C144.064 26.3047 144.457 26.699 144.457 27.4856C144.457 28.2721 144.086 28.6597 143.341 28.7277H143.339ZM136.459 36.2621C136.744 36.2621 137.021 36.3528 137.29 36.5319C137.804 36.8628 138.048 37.2572 138.021 37.7128C137.981 38.3883 137.121 39.542 135.444 41.1694C134.835 41.7769 134.361 42.0807 134.024 42.0807C133.861 42.0807 133.666 42.0058 133.435 41.854C133.097 41.6182 132.928 41.3372 132.928 41.0062C132.928 40.7569 133.084 40.4192 133.395 39.993C134.004 39.1521 134.559 38.2341 135.059 37.239C135.397 36.5908 135.864 36.2667 136.459 36.2667V36.2621Z" fill="#72AC4A"/>
<path d="M177.328 20.7174C182.577 25.1872 188.144 28.687 194.028 31.212C194.853 31.5702 195.266 31.8943 195.266 32.1844C195.266 32.4338 194.988 32.64 194.435 32.8055C193.055 33.2203 192.053 33.4266 191.433 33.4266C190.999 33.4266 190.579 33.3087 190.175 33.0752C187.59 31.6132 184.695 29.605 181.49 27.0527C179.366 25.3686 177.533 23.8091 175.99 22.3743C172.324 26.4316 167.995 29.8883 163.004 32.7443C160.637 34.0975 159.208 34.773 158.721 34.773C158.384 34.773 158.126 34.6143 157.95 34.297C157.828 34.1043 157.768 33.9048 157.768 33.6963C157.768 33.379 157.917 33.0956 158.215 32.8486C158.297 32.7806 158.817 32.4904 159.777 31.9804C163.213 30.158 166.601 27.6964 169.944 24.5911C171.864 22.7687 173.426 21.0234 174.63 19.3551C175.13 18.6524 175.63 18.2988 176.133 18.2988C176.43 18.2988 176.735 18.3827 177.046 18.5482C177.453 18.7839 177.655 19.1352 177.655 19.6044C177.655 19.9762 177.546 20.3502 177.33 20.7219L177.328 20.7174ZM166.248 33.1976C165.775 33.0186 165.537 32.674 165.537 32.1618C165.537 31.4591 165.895 31.0783 166.613 31.0239L174.344 30.3416V26.3886C174.344 25.9602 174.499 25.6224 174.81 25.3754C175.081 25.1555 175.413 25.0444 175.804 25.0444C176.304 25.0444 176.697 25.2167 176.981 25.5612C177.157 25.797 177.246 26.0712 177.246 26.3886V30.0946L183.313 29.5778C183.448 29.5642 183.557 29.5574 183.637 29.5574C184.355 29.5574 184.921 29.784 185.341 30.2396C185.761 30.6952 185.97 31.2959 185.97 32.0394C185.97 32.1368 185.957 32.2887 185.93 32.495L184.895 42.0784C184.799 42.9896 184.333 43.4452 183.495 43.4452C182.75 43.4452 182.31 43.0871 182.175 42.3686L169.148 43.4248V53.3596C171.084 53.0015 173.397 52.2354 176.088 51.0612C176.479 50.8958 176.806 50.8119 177.061 50.8119C177.481 50.8119 177.793 50.9842 177.995 51.3287C178.088 51.4942 178.137 51.6732 178.137 51.8659C178.137 52.2807 177.886 52.632 177.386 52.9222C175.344 54.0668 172.826 55.1435 169.837 56.1522C168.97 56.4423 168.388 56.5874 168.093 56.5874C167.728 56.5874 167.335 56.3675 166.915 55.9255C166.468 55.4835 166.246 54.842 166.246 54.0011V33.1999L166.248 33.1976ZM169.15 33.0526V35.8474L182.706 34.7911L182.868 32.8871V32.7012C182.868 32.1776 182.659 31.9351 182.239 31.9759L182.077 31.9963L169.15 33.0526ZM169.15 38.0007V41.1468L182.299 40.111L182.544 37.0487L169.15 38.0007ZM179.906 47.8539C182.219 46.1698 184.195 44.5559 185.833 43.01C186.266 42.5952 186.697 42.389 187.13 42.389C187.508 42.389 187.848 42.5408 188.146 42.8446C188.497 43.2027 188.675 43.6039 188.675 44.0459C188.675 44.5151 188.41 44.9503 187.884 45.3492C186.288 46.5914 184.366 47.8335 182.121 49.0756C185.341 50.7303 188.681 52.0563 192.146 53.0491C193.215 53.3528 193.748 53.6566 193.748 53.9603C193.748 54.2096 193.49 54.4227 192.977 54.6018C191.381 55.1412 190.121 55.4087 189.204 55.4087C188.568 55.4087 187.837 55.216 187.013 54.8284C184.173 53.5047 181.108 51.6959 177.819 49.4066C174.248 46.9087 172.461 45.3084 172.461 44.6035C172.461 44.3836 172.564 44.1683 172.766 43.962C173.024 43.7127 173.306 43.5903 173.617 43.5903C173.928 43.5903 174.604 44.0255 175.646 44.8936C176.808 45.8592 178.23 46.8475 179.908 47.8539H179.906Z" fill="#72AC4A"/>
<path d="M204.845 40.8769C204.819 41.1398 204.776 41.5591 204.723 42.1394C204.345 46.2783 203.263 49.8869 201.476 52.965C201.07 53.6405 200.636 53.9782 200.179 53.9782C199.963 53.9782 199.739 53.917 199.51 53.7923C199.116 53.5861 198.921 53.2257 198.921 52.7157C198.921 52.4527 199.076 52.0334 199.388 51.4531C200.43 49.4653 201.194 46.7611 201.681 43.3385C201.965 41.2554 202.108 37.5993 202.108 32.3678C201.634 32.1615 201.396 31.7671 201.396 31.1869C201.396 30.4275 201.87 30.0014 202.816 29.9039L212.901 28.8907C213.063 28.8771 213.252 28.8703 213.47 28.8703C214.999 28.8703 215.763 29.5526 215.763 30.9194C215.763 31.1687 215.743 31.4362 215.703 31.7263L214.79 37.7285C215.196 37.9778 215.399 38.3631 215.399 38.8867C215.399 39.7005 214.945 40.1425 214.039 40.2105L204.845 40.8723V40.8769ZM214.705 24.2781L202.023 25.3751C201.888 25.3887 201.808 25.3955 201.779 25.3955C200.885 25.3955 200.439 24.9671 200.439 24.1126C200.439 23.2581 200.872 22.7458 201.736 22.6642L214.399 21.5263C214.521 21.5127 214.588 21.5059 214.601 21.5059C215.561 21.5059 216.041 21.9751 216.041 22.9135C216.041 23.7409 215.594 24.1965 214.701 24.2803L214.705 24.2781ZM204.985 38.3314L212.088 37.7738L212.656 32.4539C212.63 31.8873 212.385 31.6062 211.925 31.6062H211.743L205.108 32.2477C205.108 33.8615 205.068 35.8902 204.985 38.3337V38.3314ZM221.645 35.7859C221.348 41.1965 220.205 45.8114 218.216 49.633C216.999 51.979 216.019 53.1509 215.274 53.1509C215.03 53.1509 214.794 53.0602 214.563 52.8811C214.292 52.6749 214.156 52.3915 214.156 52.0334C214.156 51.7433 214.379 51.2265 214.825 50.4807C216.596 47.4729 217.754 44.1953 218.296 40.6479C218.621 38.4674 218.783 35.3983 218.783 31.4362C218.783 30.6769 218.763 29.9742 218.723 29.3259C218.641 28.2629 218.601 27.5534 218.601 27.193C218.601 26.0075 219.101 25.4137 220.103 25.4137C220.496 25.4137 220.854 25.5519 221.179 25.8285C223.816 24.6974 226.616 23.1583 229.579 21.2135C230.025 20.9234 230.423 20.7783 230.776 20.7783C231.183 20.7783 231.554 20.9574 231.892 21.3155C232.176 21.6193 232.319 21.9502 232.319 22.3083C232.319 22.9838 231.723 23.6321 230.532 24.2531C227.596 25.7854 224.641 27.0819 221.663 28.145C221.716 30.7811 221.736 32.4358 221.723 33.1135L234.772 31.7671H234.954C235.888 31.7671 236.354 32.2159 236.354 33.1135C236.354 34.0111 235.908 34.4373 235.014 34.5211L230.368 34.9767V55.1365C230.368 55.3858 230.314 55.6057 230.205 55.7983C229.934 56.2539 229.488 56.4806 228.865 56.4806C227.876 56.4806 227.383 56.0318 227.383 55.1342V35.2442L221.641 35.7814L221.645 35.7859Z" fill="#72AC4A"/>
</svg>
