<svg width="510" height="307" viewBox="0 0 510 307" fill="none" xmlns="http://www.w3.org/2000/svg">
<g opacity="0.2">
<path fill-rule="evenodd" clip-rule="evenodd" d="M371.582 167.17C386.334 182.84 399.955 199.244 412.463 216.36L509.714 160.335V100.586C491.825 103.875 474.352 108.887 457.336 115.643C427.514 127.45 398.922 144.645 371.601 167.19" fill="#72AC4A"/>
<path fill-rule="evenodd" clip-rule="evenodd" d="M348.533 144.131C379.149 118.496 411.434 98.9426 445.347 85.5109C466.214 77.2499 487.658 71.3066 509.697 67.7011V11.0822C476.718 13.717 445.545 21.146 416.219 33.4088C376.846 49.8517 340.61 75.0707 307.531 109.066C321.946 120.279 335.607 131.987 348.513 144.151" fill="#72AC4A"/>
<path fill-rule="evenodd" clip-rule="evenodd" d="M181.012 181.038C129.329 148.132 69.3665 120.298 1.08447 97.5951V160.355L128.237 233.615L255.39 306.855L299.548 281.418C266.628 243.877 227.116 210.417 181.012 181.058" fill="#72AC4A"/>
<path fill-rule="evenodd" clip-rule="evenodd" d="M1.08528 63.5005C76.1578 87.6696 141.958 117.742 198.446 153.718C249.196 186.03 292.441 223.095 328.2 264.896L382.544 233.595L384.112 232.684C346.923 182.503 299.172 138.86 240.897 101.755C174.6 59.5384 94.6629 25.7017 1.06543 0.244995V63.5005H1.08528Z" fill="#72AC4A"/>
</g>
</svg>
