<svg width="24" height="24" viewBox="0 0 24 24" fill="none" xmlns="http://www.w3.org/2000/svg">
<g clip-path="url(#clip0_2787_1769)">
<path d="M13.4998 6.49989C13.4998 6.89772 13.3418 7.27925 13.0605 7.56055C12.7792 7.84186 12.3976 7.99989 11.9998 7.99989C11.602 7.99989 11.2205 7.84186 10.9391 7.56055C10.6578 7.27925 10.4998 6.89772 10.4998 6.49989C10.4998 6.10207 10.6578 5.72053 10.9391 5.43923C11.2205 5.15793 11.602 4.99989 11.9998 4.99989C12.3976 4.99989 12.7792 5.15793 13.0605 5.43923C13.3418 5.72053 13.4998 6.10207 13.4998 6.49989ZM23.9998 18.9999V12.3399C24.0371 9.25734 22.9069 6.27478 20.8361 3.99106C18.7653 1.70734 15.9073 0.291528 12.8358 0.02789C11.1215 -0.0920523 9.40134 0.15763 7.79185 0.760043C6.18235 1.36246 4.72102 2.30355 3.50672 3.51964C2.29243 4.73573 1.35351 6.19846 0.753484 7.80885C0.153457 9.41924 -0.0936746 11.1397 0.0288091 12.8539C0.470809 19.2079 6.08181 23.9999 13.0828 23.9999H18.9998C20.3254 23.9983 21.5963 23.471 22.5336 22.5337C23.4709 21.5963 23.9982 20.3255 23.9998 18.9999ZM12.6998 2.02389C15.2663 2.25093 17.6517 3.4408 19.3769 5.35444C21.1021 7.26809 22.0391 9.76371 21.9998 12.3399V18.9999C21.9998 19.7955 21.6837 20.5586 21.1211 21.1212C20.5585 21.6838 19.7955 21.9999 18.9998 21.9999H13.0828C7.04881 21.9999 2.39981 18.0999 2.02481 12.7159C1.92636 11.3445 2.11178 9.96749 2.56949 8.67096C3.0272 7.37443 3.74736 6.18622 4.68498 5.18056C5.6226 4.1749 6.75754 3.3734 8.01888 2.82614C9.28022 2.27887 10.6409 1.9976 12.0158 1.99989C12.2428 1.99989 12.4718 2.00889 12.6998 2.02389ZM13.9998 17.9999V11.9999C13.9998 11.4695 13.7891 10.9608 13.414 10.5857C13.039 10.2106 12.5302 9.99989 11.9998 9.99989H10.9998C10.7346 9.99989 10.4802 10.1052 10.2927 10.2928C10.1052 10.4803 9.99981 10.7347 9.99981 10.9999C9.99981 11.2651 10.1052 11.5195 10.2927 11.707C10.4802 11.8945 10.7346 11.9999 10.9998 11.9999H11.9998V17.9999C11.9998 18.2651 12.1052 18.5195 12.2927 18.707C12.4802 18.8945 12.7346 18.9999 12.9998 18.9999C13.265 18.9999 13.5194 18.8945 13.7069 18.707C13.8945 18.5195 13.9998 18.2651 13.9998 17.9999Z" fill="#262626"/>
</g>
<defs>
<clipPath id="clip0_2787_1769">
<rect width="24" height="24" fill="white"/>
</clipPath>
</defs>
</svg>
