<?xml version="1.0" encoding="utf-8"?>
<!-- Generator: Adobe Illustrator 25.0.0, SVG Export Plug-In . SVG Version: 6.00 Build 0)  -->
<svg version="1.1" id="圖層_1" xmlns="http://www.w3.org/2000/svg" xmlns:xlink="http://www.w3.org/1999/xlink" x="0px" y="0px"
	 viewBox="0 0 24 24" style="enable-background:new 0 0 24 24;" xml:space="preserve">
<style type="text/css">
	.st0{clip-path:url(#SVGID_2_);}
	.st1{fill:#FFFFFF;}
</style>
<g>
	<defs>
		<rect id="SVGID_1_" y="0" width="24" height="24"/>
	</defs>
	<clipPath id="SVGID_2_">
		<use xlink:href="#SVGID_1_"  style="overflow:visible;"/>
	</clipPath>
	<g class="st0">
		<path class="st1" d="M12,12c1.2,0,2.3-0.4,3.3-1c1-0.7,1.8-1.6,2.2-2.7C18,7.2,18.1,6,17.9,4.8c-0.2-1.2-0.8-2.2-1.6-3.1
			c-0.8-0.8-1.9-1.4-3.1-1.6C12-0.1,10.8,0,9.7,0.5C8.6,0.9,7.7,1.7,7,2.7S6,4.8,6,6c0,1.6,0.6,3.1,1.8,4.2C8.9,11.4,10.4,12,12,12z
			 M12,2c0.8,0,1.6,0.2,2.2,0.7c0.7,0.4,1.2,1.1,1.5,1.8C16,5.2,16.1,6,15.9,6.8c-0.2,0.8-0.5,1.5-1.1,2c-0.6,0.6-1.3,0.9-2,1.1
			c-0.8,0.2-1.6,0.1-2.3-0.2C9.7,9.4,9.1,8.9,8.7,8.2C8.2,7.6,8,6.8,8,6c0-1.1,0.4-2.1,1.2-2.8C9.9,2.4,10.9,2,12,2z"/>
		<path class="st1" d="M12,14c-2.4,0-4.7,1-6.4,2.6C4,18.3,3,20.6,3,23c0,0.3,0.1,0.5,0.3,0.7C3.5,23.9,3.7,24,4,24s0.5-0.1,0.7-0.3
			C4.9,23.5,5,23.3,5,23c0-1.9,0.7-3.6,2.1-4.9C8.4,16.7,10.1,16,12,16s3.6,0.7,4.9,2.1c1.3,1.3,2.1,3.1,2.1,4.9
			c0,0.3,0.1,0.5,0.3,0.7c0.2,0.2,0.4,0.3,0.7,0.3s0.5-0.1,0.7-0.3c0.2-0.2,0.3-0.4,0.3-0.7c0-2.4-1-4.7-2.6-6.4
			C16.7,15,14.4,14,12,14z"/>
	</g>
</g>
</svg>
